<svg xmlns="http://www.w3.org/2000/svg" width="226.229" height="227.817" viewBox="0 0 226.229 227.817">
  <g id="Grupo_35" data-name="Grupo 35" transform="translate(-242.008 -405.737)">
    <g id="file-text" transform="translate(294.83 407.237)">
      <path id="Caminho_62" data-name="Caminho 62" d="M92.487,2H21.578C11.788,2,3.851,6.98,3.851,13.124L2.893,84.641s5.006-.645,15.4.717c2.993.392,6.514,4.877,8.292,6.6,6.59,7.38,11.648,17.068,15.991,17.068l85.367,4.215c9.791,0,17.727-4.98,17.727-11.124V35.372Z" transform="translate(-2.892 -2)" fill="none" stroke="#2a4c67" stroke-linecap="round" stroke-linejoin="round" stroke-width="3"/>
      <path id="Caminho_63" data-name="Caminho 63" d="M14,2V51.869H67.182" transform="translate(75.595 -2)" fill="none" stroke="#2a4c67" stroke-linecap="round" stroke-linejoin="round" stroke-width="3"/>
      <line id="Linha_14" data-name="Linha 14" x1="73" transform="translate(35.17 91.763)" fill="none" stroke="#2a4c67" stroke-linecap="round" stroke-linejoin="round" stroke-width="3"/>
      <path id="Caminho_65" data-name="Caminho 65" d="M0,0" transform="translate(35.574 125.097)" fill="none" stroke="#2a4c67" stroke-linecap="round" stroke-width="3"/>
      <path id="Caminho_64" data-name="Caminho 64" d="M25.727,9H8" transform="translate(28.413 49.18)" fill="none" stroke="#2a4c67" stroke-linecap="round" stroke-linejoin="round" stroke-width="3"/>
    </g>
    <path id="folder" d="M226.229,133.1c0,8.982-10.039,16.263-22.423,16.263H24.423C12.039,149.366,2,142.085,2,133.1V19.263C2,10.281,12.039,3,24.423,3H80.48L102.9,27.394h100.9c12.384,0,22.423,7.281,22.423,16.263Z" transform="translate(241.008 483.188)" fill="#2a4c67" stroke="#2a4c67" stroke-linecap="round" stroke-linejoin="round" stroke-width="2"/>
  </g>
</svg>
