<svg xmlns="http://www.w3.org/2000/svg" width="40.582" height="36.896" viewBox="0 0 40.582 36.896">
  <path id="Icon_awesome-plus" data-name="Icon awesome-plus" d="M37.683,16.745H24.639V4.885a2.777,2.777,0,0,0-2.9-2.635h-2.9a2.777,2.777,0,0,0-2.9,2.635V16.745H2.9A2.777,2.777,0,0,0,0,19.38v2.635a2.777,2.777,0,0,0,2.9,2.635H15.943V36.511a2.777,2.777,0,0,0,2.9,2.635h2.9a2.777,2.777,0,0,0,2.9-2.635V24.651H37.683a2.777,2.777,0,0,0,2.9-2.635V19.38A2.777,2.777,0,0,0,37.683,16.745Z" transform="translate(0 -2.25)" fill="#707070"/>
</svg>
