<svg xmlns="http://www.w3.org/2000/svg" width="53" height="53" viewBox="0 0 53 53">
  <g id="Grupo_40" data-name="Grupo 40" transform="translate(-704 -1502)">
    <g id="Grupo_36" data-name="Grupo 36">
      <g id="Grupo_39" data-name="Grupo 39" transform="translate(-4 9)">
        <path id="twitter" d="M29.2,3a13.971,13.971,0,0,1-4.025,1.961A5.742,5.742,0,0,0,15.1,8.809v1.282A13.664,13.664,0,0,1,3.564,4.285S-1.564,15.821,9.972,20.948A14.92,14.92,0,0,1,1,23.511c11.536,6.409,25.635,0,25.635-14.74a5.768,5.768,0,0,0-.1-1.064A9.9,9.9,0,0,0,29.2,3Z" transform="translate(719.5 1505.51)" fill="none" stroke="#fff" stroke-linecap="round" stroke-linejoin="round" stroke-width="2"/>
        <g id="Elipse_4" data-name="Elipse 4" transform="translate(708 1493)" fill="none" stroke="#fff" stroke-width="2">
          <circle cx="26.5" cy="26.5" r="26.5" stroke="none"/>
          <circle cx="26.5" cy="26.5" r="25.5" fill="none"/>
        </g>
      </g>
    </g>
  </g>
</svg>
